<svg width="566" height="179" viewBox="0 0 566 179" fill="none" xmlns="http://www.w3.org/2000/svg">
<path d="M417.285 125.181C389.871 153.903 363.536 182.244 316.888 198.737C270.24 215.231 231.944 209.742 192.569 204.635M258.047 209.69C254.23 223.98 249.711 238.073 244.508 251.919C179.683 272.785 140.604 239.739 140.604 239.739C120.648 180.394 114.428 117.293 122.413 55.1943C139.337 28.6202 164.104 7.96502 193.285 -3.91148L209.084 13.1024C220.895 6.98637 233.098 1.65854 245.613 -2.84614C258.223 -7.25819 271.11 -10.8343 284.191 -13.5514L285.784 -36.715C316.001 -45.7558 348.282 -45.1679 378.149 -35.0327C423.294 8.23723 458.038 61.1824 479.765 119.819C479.765 119.819 470.144 170.085 406.61 194.603C394.014 187.108 381.803 178.985 370.023 170.264L258.047 209.69Z" stroke="white" stroke-width="7" stroke-linecap="round" stroke-linejoin="round"/>
<path d="M246.16 168.957C262.249 163.268 270.681 145.613 264.992 129.523C259.303 113.433 241.648 105.002 225.558 110.691C209.468 116.38 201.037 134.035 206.726 150.124C212.415 166.214 230.07 174.646 246.16 168.957Z" stroke="white" stroke-width="7" stroke-linecap="round" stroke-linejoin="round"/>
<path d="M353.178 131.117C369.267 125.428 377.699 107.773 372.01 91.6836C366.321 75.5939 348.666 67.1624 332.576 72.8513C316.486 78.5403 308.055 96.1954 313.744 112.285C319.433 128.375 337.088 136.806 353.178 131.117Z" stroke="white" stroke-width="7" stroke-linecap="round" stroke-linejoin="round"/>
</svg>
