<svg width="3143" height="1443" viewBox="0 0 3143 1443" fill="none" xmlns="http://www.w3.org/2000/svg">
<g opacity="0.1">
<g clip-path="url(#clip0_287_55)">
<path d="M505.313 1190.18L392.287 1383.35C385.976 1394.13 374.378 1402.54 360.043 1406.72C345.708 1410.9 329.812 1410.51 315.85 1405.63L105.283 1332.1C91.322 1327.23 80.4393 1318.27 75.0295 1307.19C69.6197 1296.12 70.1259 1283.84 76.4368 1273.05L219.207 1029.05C225.518 1018.26 237.116 1009.86 251.451 1005.68C265.786 1001.5 281.682 1001.89 295.644 1006.76L440.408 1057.32L505.313 1190.18ZM426.351 1162.6C415.88 1158.95 407.718 1152.23 403.66 1143.92C399.603 1135.62 399.983 1126.41 404.716 1118.32L428.511 1077.65L283.746 1027.1C276.766 1024.66 268.817 1024.46 261.65 1026.55C254.483 1028.64 248.683 1032.85 245.528 1038.24L102.758 1282.24C99.6022 1287.64 99.3491 1293.78 102.054 1299.31C104.759 1304.85 110.2 1309.33 117.181 1311.77L327.748 1385.3C334.728 1387.73 342.677 1387.93 349.844 1385.84C357.011 1383.75 362.811 1379.55 365.966 1374.15L478.993 1180.99L426.351 1162.6Z" fill="#FF8A00" fill-opacity="0.7"/>
<path d="M338.859 1184.6C340.636 1184.08 342.528 1183.84 344.426 1183.89C346.325 1183.93 348.194 1184.27 349.925 1184.87C351.656 1185.47 353.215 1186.34 354.514 1187.41C355.813 1188.48 356.826 1189.74 357.495 1191.11L386.341 1250.16C387.014 1251.53 387.33 1252.99 387.271 1254.46C387.212 1255.93 386.778 1257.37 385.996 1258.71C385.213 1260.05 384.097 1261.25 382.711 1262.25C381.325 1263.26 379.696 1264.04 377.918 1264.56L301.481 1286.84C297.893 1287.89 293.914 1287.79 290.419 1286.57C286.924 1285.35 284.2 1283.11 282.846 1280.33C281.492 1277.56 281.618 1274.49 283.198 1271.79C284.778 1269.09 287.681 1266.98 291.269 1265.94L354.203 1247.61L330.436 1199C329.763 1197.63 329.447 1196.17 329.506 1194.7C329.566 1193.23 329.999 1191.79 330.781 1190.45C331.564 1189.11 332.68 1187.91 334.066 1186.91C335.452 1185.9 337.081 1185.12 338.859 1184.6ZM304.853 1172.73C304.184 1171.35 303.172 1170.1 301.873 1169.03C300.574 1167.95 299.014 1167.09 297.283 1166.49C295.552 1165.88 293.684 1165.55 291.785 1165.5C289.886 1165.46 287.994 1165.7 286.218 1166.22L209.781 1188.51C208.003 1189.02 206.374 1189.8 204.988 1190.81C203.602 1191.81 202.485 1193.02 201.703 1194.35C200.92 1195.69 200.487 1197.13 200.428 1198.6C200.369 1200.07 200.685 1201.53 201.358 1202.9L230.204 1261.95C231.558 1264.72 234.283 1266.97 237.777 1268.19C241.272 1269.41 245.251 1269.5 248.839 1268.46C252.428 1267.41 255.331 1265.31 256.911 1262.61C258.49 1259.91 258.617 1256.83 257.263 1254.06L233.496 1205.46L296.429 1187.12C298.208 1186.61 299.836 1185.83 301.223 1184.82C302.609 1183.82 303.725 1182.61 304.508 1181.28C305.29 1179.94 305.723 1178.5 305.783 1177.03C305.842 1175.56 305.526 1174.1 304.853 1172.73V1172.73Z" fill="#FF8A00" fill-opacity="0.7"/>
</g>
</g>
<g opacity="0.1">
<g clip-path="url(#clip1_287_55)">
<path d="M1777.86 822.376C1824.81 822.376 1862.83 792.974 1862.83 756.673C1862.83 720.372 1824.81 690.969 1777.86 690.969C1739.2 690.969 1706.59 710.927 1696.29 738.194C1679.19 737.701 1666.02 734.744 1657.1 729.159C1636.7 716.511 1633.31 688.67 1629.8 659.185C1627.04 636.025 1624.07 612.043 1611.85 592.414H1764.8C1775.63 619.106 1807.81 638.407 1845.84 638.407C1892.78 638.407 1930.81 609.004 1930.81 572.703C1930.81 536.402 1892.78 507 1845.84 507C1807.81 507 1775.63 526.3 1764.8 552.992H1553.12C1542.18 526.3 1509.99 507 1471.97 507C1425.02 507 1387 536.402 1387 572.703C1387 609.004 1425.02 638.407 1471.97 638.407C1508.08 638.407 1538.99 620.995 1551.2 596.357C1556.73 598.903 1561.61 602.763 1565.44 608.594C1574.15 621.899 1576.48 641.774 1579.03 662.881C1583.17 697.54 1587.95 736.797 1625.13 759.958C1643.61 771.456 1667.4 777.287 1697.25 777.698C1708.72 803.65 1740.47 822.376 1777.86 822.376ZM1862.83 572.703C1862.83 579.931 1855.18 585.844 1845.84 585.844C1836.49 585.844 1828.84 579.931 1828.84 572.703C1828.84 565.476 1836.49 559.563 1845.84 559.563C1855.18 559.563 1862.83 565.476 1862.83 572.703ZM1454.98 572.703C1454.98 565.476 1462.62 559.563 1471.97 559.563C1481.32 559.563 1488.96 565.476 1488.96 572.703C1488.96 579.931 1481.32 585.844 1471.97 585.844C1462.62 585.844 1454.98 579.931 1454.98 572.703ZM1794.85 756.673C1794.85 763.9 1787.21 769.813 1777.86 769.813C1768.51 769.813 1760.87 763.9 1760.87 756.673C1760.87 749.445 1768.51 743.532 1777.86 743.532C1787.21 743.532 1794.85 749.445 1794.85 756.673Z" fill="white" fill-opacity="0.34"/>
</g>
</g>
<g opacity="0.1">
<g clip-path="url(#clip2_287_55)">
<path d="M3059.3 388.481L2737.19 489.361C2729.44 491.787 2720.59 488.811 2717.39 482.703L2584.1 228.699C2580.89 222.591 2584.56 215.696 2592.31 213.27L2914.42 112.39C2922.17 109.964 2931.02 112.939 2934.22 119.048L3067.51 373.051C3070.72 379.16 3067.05 386.055 3059.3 388.481ZM2825.18 298.619L2711.99 269.372C2708.92 268.567 2706.13 270.926 2707.37 273.273L2718.72 294.912C2719.14 295.706 2720.04 296.349 2721.09 296.62L2785.85 313.389L2754.49 360.258C2754.22 360.635 2754.06 361.057 2754.04 361.491C2754.01 361.925 2754.11 362.359 2754.33 362.761L2765.68 384.4C2766.91 386.747 2771.04 386.941 2772.52 384.709L2827.41 302.864C2828.54 301.225 2827.47 299.189 2825.18 298.619V298.619ZM2885.93 217.351C2885.13 215.832 2882.99 215.056 2881.2 215.618L2800.23 240.975C2798.44 241.537 2797.6 243.245 2798.4 244.764L2807.09 261.329C2807.89 262.848 2810.03 263.624 2811.82 263.062L2892.79 237.705C2894.58 237.143 2895.42 235.435 2894.62 233.916L2885.93 217.351Z" fill="#EDD34A" fill-opacity="0.74"/>
</g>
</g>
<g opacity="0.1">
<g clip-path="url(#clip3_287_55)">
<path d="M2888.11 1257.98C2888.11 1265.05 2882.71 1271.44 2874.43 1274.27C2866.06 1277.17 2855.47 1275.98 2849.5 1271.22L2772.47 1217.67C2767.66 1214.32 2764.86 1209.48 2764.86 1204.43C2764.86 1199.37 2767.66 1194.53 2772.47 1191.19L2849.5 1137.63C2855.47 1132.87 2866.06 1131.68 2874.43 1134.58C2882.71 1137.41 2888.11 1143.8 2888.11 1150.87V1180.62H2903.51C2937.5 1180.62 2965.13 1159.28 2965.13 1133.02V1009.03C2937.88 999.208 2918.92 978.902 2918.92 954.505C2918.92 921.643 2953.39 895 2995.94 895C3038.5 895 3072.97 921.643 3072.97 954.505C3072.97 978.902 3054 999.208 3026.75 1009.03V1133.02C3026.75 1185.61 2971.58 1228.23 2903.51 1228.23H2888.11V1257.98ZM3019.05 953.835C3019.05 944.642 3008.75 935.984 2995.94 935.984C2983.14 935.984 2972.83 944.642 2972.83 953.835C2972.83 964.36 2983.14 971.687 2995.94 971.687C3008.75 971.687 3019.05 964.36 3019.05 953.835ZM2764.86 912.851C2764.86 905.8 2770.26 899.412 2778.54 896.544C2782.63 895.141 2787.16 894.681 2791.58 895.22C2796.01 895.759 2800.14 897.274 2803.47 899.583L2880.5 953.136C2885.31 956.521 2888.11 961.348 2888.11 966.406C2888.11 971.464 2885.31 976.299 2880.5 979.646L2803.47 1033.2C2796.64 1037.96 2786.91 1039.15 2778.54 1036.25C2770.26 1033.42 2764.86 1027.03 2764.86 1019.96V990.208H2749.46C2715.47 990.208 2687.84 1011.56 2687.84 1037.81V1161.81C2715.09 1170.95 2734.05 1191.93 2734.05 1216.33C2734.05 1249.2 2699.58 1275.83 2657.03 1275.83C2614.49 1275.83 2580 1249.2 2580 1216.33C2580 1191.93 2599.02 1170.95 2626.22 1161.81V1037.81C2626.22 985.224 2681.39 942.604 2749.46 942.604H2764.86V912.851V912.851ZM2633.92 1216.33C2633.92 1226.22 2644.27 1234.18 2657.03 1234.18C2669.78 1234.18 2680.13 1226.22 2680.13 1216.33C2680.13 1206.43 2669.78 1198.47 2657.03 1198.47C2644.27 1198.47 2633.92 1206.43 2633.92 1216.33Z" fill="white" fill-opacity="0.7"/>
</g>
</g>
<g opacity="0.1">
<g clip-path="url(#clip4_287_55)">
<path d="M376.649 133.087L412.908 200.222C399.342 204.581 387.12 211.103 377.042 219.362C366.964 227.621 359.256 237.431 354.424 248.15C345.876 266.961 346.665 287.553 356.637 305.941C363.774 319.143 375.314 330.646 390.082 339.279C404.85 347.912 422.317 353.366 440.702 355.084C418.241 369.374 386.091 384.028 348.645 396.098C268.655 421.88 194.785 426.081 183.661 405.486L86.9696 226.458" stroke="white" stroke-width="10" stroke-linecap="round" stroke-linejoin="round"/>
<path d="M119.2 286.134C130.324 306.729 204.194 302.529 284.184 276.746C310.796 268.168 334.738 258.279 354.424 248.15M376.649 133.087C387.773 153.683 331.944 191.287 251.953 217.07C171.963 242.853 98.0932 247.054 86.9696 226.458C75.8461 205.862 131.675 168.258 211.665 142.475C291.655 116.692 365.525 112.491 376.649 133.087ZM151.431 345.81C162.554 366.405 236.424 362.205 316.414 336.422C333.863 330.798 350.17 324.613 364.868 318.159L151.431 345.81Z" stroke="white" stroke-width="10" stroke-linecap="round" stroke-linejoin="round"/>
<path d="M549.756 243.694C572.007 284.892 546.815 332.223 493.485 349.412C476.2 354.983 458.066 356.712 440.702 355.084C422.317 353.366 404.85 347.912 390.082 339.279C375.314 330.646 363.774 319.143 356.637 305.941C346.291 286.785 346.202 266.302 354.424 248.15C359.256 237.431 366.964 227.621 377.042 219.362C387.12 211.103 399.342 204.581 412.908 200.222C466.238 183.033 527.505 202.495 549.756 243.694Z" stroke="white" stroke-width="10" stroke-linecap="round" stroke-linejoin="round"/>
<path d="M432.286 299.073L404.917 290.379L416.171 269.235M474.107 250.561L501.476 259.256L490.222 280.399L474.107 250.561Z" stroke="white" stroke-width="10" stroke-linecap="round" stroke-linejoin="round"/>
</g>
</g>
<defs>
<clipPath id="clip0_287_55">
<path d="M190.36 970L611.494 1117.06L421.134 1442.39L7.12035e-06 1295.34L190.36 970Z" fill="white"/>
</clipPath>
<clipPath id="clip1_287_55">
<path d="M1930.81 507V822.376H1387V507H1930.81Z" fill="white"/>
</clipPath>
<clipPath id="clip2_287_55">
<path d="M2694.45 547.75L3142.61 407.396L2957.16 54.0001L2509 194.354L2694.45 547.75Z" fill="white"/>
</clipPath>
<clipPath id="clip3_287_55">
<path d="M2580 895H3072.97V1275.83H2580V895Z" fill="white"/>
</clipPath>
<clipPath id="clip4_287_55">
<path d="M0 149.393L463.487 -8.00077e-05L656.87 358.056L193.383 507.449L0 149.393Z" fill="white"/>
</clipPath>
</defs>
</svg>
