<svg width="1510" height="937" viewBox="0 0 1510 937" fill="none" xmlns="http://www.w3.org/2000/svg">
<g opacity="0.1" clip-path="url(#clip0_61_154)">
<path d="M213.013 851.007L139.644 1013.32C135.548 1022.38 128.019 1029.45 118.714 1032.96C109.409 1036.47 99.09 1036.14 90.0272 1032.05L-46.6575 970.262C-55.7203 966.165 -62.7845 958.636 -66.2962 949.331C-69.8078 940.026 -69.4792 929.707 -65.3827 920.644L27.2935 715.617C31.39 706.554 38.9189 699.49 48.224 695.979C57.529 692.467 67.8479 692.795 76.9107 696.892L170.881 739.369L213.013 851.007ZM161.756 827.838C154.959 824.766 149.661 819.119 147.027 812.14C144.394 805.162 144.64 797.422 147.712 790.625L163.158 756.454L69.1877 713.978C64.6563 711.929 59.4968 711.765 54.8443 713.521C50.1918 715.277 46.4273 718.809 44.3791 723.34L-48.2971 928.367C-50.3454 932.899 -50.5096 938.058 -48.7538 942.711C-46.998 947.363 -43.4659 951.128 -38.9345 953.176L97.7503 1014.96C102.282 1017.01 107.441 1017.17 112.094 1015.42C116.746 1013.66 120.511 1010.13 122.559 1005.6L195.927 843.284L161.756 827.838Z" fill="#FF8A00" fill-opacity="0.7"/>
<path d="M104.963 846.324C106.116 845.887 107.344 845.682 108.577 845.721C109.81 845.759 111.022 846.04 112.146 846.548C113.27 847.056 114.282 847.781 115.125 848.681C115.969 849.58 116.626 850.638 117.06 851.792L135.785 901.409C136.222 902.562 136.427 903.79 136.389 905.023C136.35 906.255 136.069 907.468 135.561 908.592C135.053 909.716 134.328 910.728 133.429 911.571C132.529 912.414 131.471 913.072 130.317 913.506L80.6999 932.231C78.3708 933.11 75.7878 933.028 73.5192 932.002C71.2507 930.977 69.4824 929.092 68.6033 926.763C67.7243 924.434 67.8066 921.851 68.832 919.582C69.8574 917.314 71.742 915.545 74.0712 914.666L114.923 899.263L99.4954 858.421C99.0585 857.267 98.8535 856.039 98.8919 854.807C98.9304 853.574 99.2117 852.362 99.7196 851.238C100.228 850.114 100.952 849.102 101.852 848.259C102.752 847.415 103.809 846.758 104.963 846.324ZM82.8887 836.346C82.4548 835.192 81.7974 834.134 80.9542 833.235C80.111 832.335 79.0985 831.61 77.9749 831.102C76.8512 830.594 75.6384 830.313 74.4058 830.275C73.1733 830.236 71.9453 830.441 70.7921 830.878L21.1749 849.603C20.0206 850.037 18.9633 850.695 18.0635 851.538C17.1637 852.381 16.4391 853.393 15.9312 854.517C15.4232 855.641 15.142 856.854 15.1035 858.086C15.0651 859.319 15.2701 860.547 15.707 861.7L34.4322 911.317C35.3112 913.646 37.0795 915.531 39.348 916.556C41.6166 917.582 44.1996 917.664 46.5288 916.785C48.858 915.906 50.7426 914.138 51.768 911.869C52.7934 909.6 52.8757 907.017 51.9967 904.688L36.5687 863.846L77.4208 848.442C78.5751 848.009 79.6324 847.351 80.5322 846.508C81.432 845.665 82.1566 844.652 82.6645 843.529C83.1724 842.405 83.4537 841.192 83.4922 839.96C83.5306 838.727 83.3256 837.499 82.8887 836.346Z" fill="#FF8A00" fill-opacity="0.7"/>
</g>
<g opacity="0.1" clip-path="url(#clip1_61_154)">
<path d="M916.719 557C947.193 557 971.875 532.294 971.875 501.792C971.875 471.289 947.193 446.583 916.719 446.583C891.623 446.583 870.456 463.353 863.769 486.264C852.669 485.85 844.119 483.366 838.328 478.673C825.09 468.046 822.884 444.651 820.609 419.876C818.816 400.415 816.886 380.264 808.957 363.771H908.238C915.271 386.199 936.161 402.417 960.844 402.417C991.318 402.417 1016 377.711 1016 347.208C1016 316.706 991.318 292 960.844 292C936.161 292 915.271 308.217 908.238 330.646H770.83C763.729 308.217 742.839 292 718.156 292C687.682 292 663 316.706 663 347.208C663 377.711 687.682 402.417 718.156 402.417C741.598 402.417 761.661 387.786 769.589 367.083C773.175 369.223 776.346 372.466 778.828 377.366C784.482 388.546 785.998 405.246 787.653 422.982C790.342 452.104 793.445 485.091 817.575 504.552C829.572 514.214 845.016 519.113 864.389 519.458C871.835 541.266 892.45 557 916.719 557ZM971.875 347.208C971.875 353.281 966.911 358.25 960.844 358.25C954.777 358.25 949.812 353.281 949.812 347.208C949.812 341.135 954.777 336.167 960.844 336.167C966.911 336.167 971.875 341.135 971.875 347.208ZM707.125 347.208C707.125 341.135 712.089 336.167 718.156 336.167C724.223 336.167 729.188 341.135 729.188 347.208C729.188 353.281 724.223 358.25 718.156 358.25C712.089 358.25 707.125 353.281 707.125 347.208ZM927.75 501.792C927.75 507.865 922.786 512.833 916.719 512.833C910.652 512.833 905.688 507.865 905.688 501.792C905.688 495.719 910.652 490.75 916.719 490.75C922.786 490.75 927.75 495.719 927.75 501.792Z" fill="white" fill-opacity="0.34"/>
</g>
<g opacity="0.1" clip-path="url(#clip2_61_154)">
<path d="M1576.22 281.053L1367.12 365.819C1362.1 367.857 1356.35 365.358 1354.27 360.225L1267.75 146.794C1265.67 141.661 1268.05 135.867 1273.08 133.829L1482.17 49.0632C1487.2 47.0247 1492.94 49.5245 1495.02 54.6573L1581.55 268.088C1583.63 273.221 1581.25 279.015 1576.22 281.053ZM1424.24 205.545L1350.77 180.97C1348.77 180.293 1346.97 182.276 1347.76 184.248L1355.14 202.43C1355.41 203.097 1355.99 203.637 1356.68 203.865L1398.71 217.956L1378.35 257.339C1378.18 257.655 1378.08 258.009 1378.06 258.374C1378.04 258.739 1378.11 259.104 1378.25 259.442L1385.62 277.624C1386.42 279.596 1389.1 279.759 1390.06 277.884L1425.69 209.112C1426.42 207.735 1425.73 206.024 1424.24 205.545ZM1463.68 137.258C1463.16 135.982 1461.77 135.33 1460.6 135.802L1408.05 157.109C1406.88 157.581 1406.34 159.016 1406.86 160.292L1412.5 174.212C1413.02 175.488 1414.41 176.14 1415.57 175.668L1468.13 154.361C1469.29 153.889 1469.84 152.454 1469.32 151.178L1463.68 137.258Z" fill="#EDD34A" fill-opacity="0.74"/>
</g>
<g opacity="0.1" clip-path="url(#clip3_61_154)">
<path d="M1363 835C1363 840.938 1359.5 846.312 1354.12 848.687C1348.69 851.125 1341.81 850.125 1337.94 846.125L1287.94 801.125C1284.81 798.312 1283 794.25 1283 790C1283 785.75 1284.81 781.688 1287.94 778.875L1337.94 733.875C1341.81 729.875 1348.69 728.875 1354.12 731.313C1359.5 733.688 1363 739.062 1363 745V770H1373C1395.06 770 1413 752.062 1413 730V625.813C1395.31 617.563 1383 600.5 1383 580C1383 552.387 1405.37 530 1433 530C1460.63 530 1483 552.387 1483 580C1483 600.5 1470.69 617.563 1453 625.813V730C1453 774.187 1417.19 810 1373 810H1363V835ZM1448 579.437C1448 571.712 1441.31 564.437 1433 564.437C1424.69 564.437 1418 571.712 1418 579.437C1418 588.281 1424.69 594.437 1433 594.437C1441.31 594.437 1448 588.281 1448 579.437ZM1283 545C1283 539.075 1286.5 533.707 1291.87 531.297C1294.53 530.118 1297.47 529.732 1300.35 530.185C1303.22 530.638 1305.9 531.911 1308.06 533.851L1358.06 578.85C1361.19 581.694 1363 585.75 1363 590C1363 594.25 1361.19 598.313 1358.06 601.125L1308.06 646.125C1303.63 650.125 1297.31 651.125 1291.87 648.687C1286.5 646.312 1283 640.938 1283 635V610H1273C1250.94 610 1233 627.938 1233 650V754.188C1250.69 761.875 1263 779.5 1263 800C1263 827.625 1240.63 850 1213 850C1185.39 850 1163 827.625 1163 800C1163 779.5 1175.34 761.875 1193 754.188V650C1193 605.813 1228.81 570 1273 570H1283V545V545ZM1198 800C1198 808.313 1204.72 815 1213 815C1221.28 815 1228 808.313 1228 800C1228 791.687 1221.28 785 1213 785C1204.72 785 1198 791.687 1198 800Z" fill="white" fill-opacity="0.7"/>
</g>
<g opacity="0.1" clip-path="url(#clip4_61_154)">
<path d="M121.494 229.829L145.03 286.24C136.224 289.903 128.291 295.383 121.749 302.323C115.207 309.263 110.203 317.506 107.067 326.512C101.518 342.319 102.03 359.621 108.503 375.072C113.136 386.165 120.627 395.831 130.213 403.085C139.799 410.339 151.138 414.921 163.072 416.365C148.492 428.373 127.622 440.686 103.315 450.828C51.3915 472.492 3.44036 476.022 -3.78025 458.716L-66.5454 308.285" stroke="white" stroke-width="10" stroke-linecap="round" stroke-linejoin="round"/>
<path d="M-45.6238 358.429C-38.4032 375.735 9.54794 372.205 61.4718 350.54C78.7463 343.333 94.2878 335.023 107.067 326.512M121.493 229.829C128.714 247.134 92.4739 278.732 40.55 300.397C-11.3738 322.061 -59.3249 325.591 -66.5455 308.285C-73.7661 290.979 -37.5259 259.381 14.3979 237.717C66.3217 216.053 114.273 212.523 121.493 229.829ZM-24.7021 408.573C-17.4815 425.878 30.4697 422.349 82.3935 400.684C93.7197 395.958 104.305 390.762 113.846 385.339L-24.7021 408.573Z" stroke="white" stroke-width="10" stroke-linecap="round" stroke-linejoin="round"/>
<path d="M233.862 322.768C248.306 357.386 231.953 397.156 197.335 411.6C186.115 416.281 174.343 417.734 163.072 416.365C151.137 414.921 139.799 410.339 130.213 403.085C120.627 395.831 113.136 386.165 108.503 375.072C101.787 358.976 101.729 341.765 107.067 326.512C110.203 317.506 115.206 309.263 121.748 302.323C128.29 295.383 136.224 289.903 145.03 286.24C179.648 271.796 219.418 288.15 233.862 322.768Z" stroke="white" stroke-width="10" stroke-linecap="round" stroke-linejoin="round"/>
<path d="M157.609 369.302L139.843 361.996L147.148 344.23M184.756 328.538L202.522 335.844L195.217 353.61L184.756 328.538Z" stroke="white" stroke-width="10" stroke-linecap="round" stroke-linejoin="round"/>
</g>
<defs>
<clipPath id="clip0_61_154">
<rect width="300" height="300" fill="white" transform="translate(8.56836 666) rotate(24.3239)"/>
</clipPath>
<clipPath id="clip1_61_154">
<rect width="265" height="353" fill="white" transform="translate(1016 292) rotate(90)"/>
</clipPath>
<clipPath id="clip2_61_154">
<rect width="313.91" height="320.421" fill="white" transform="matrix(0.926743 -0.375697 -0.375697 -0.926743 1339.38 414.882)"/>
</clipPath>
<clipPath id="clip3_61_154">
<rect width="320" height="320" fill="white" transform="translate(1163 530)"/>
</clipPath>
<clipPath id="clip4_61_154">
<rect width="326" height="326" fill="white" transform="translate(-123 243.53) rotate(-22.6476)"/>
</clipPath>
</defs>
</svg>
